<?xml version="1.0" standalone="no"?>
<!DOCTYPE svg PUBLIC "-//W3C//DTD SVG 20010904//EN"
 "http://www.w3.org/TR/2001/REC-SVG-20010904/DTD/svg10.dtd">
<svg version="1.0" xmlns="http://www.w3.org/2000/svg"
 width="450.000000pt" height="450.000000pt" viewBox="0 0 450.000000 450.000000"
 preserveAspectRatio="xMidYMid meet">
<metadata>
Created by potrace 1.14, written by Peter Selinger 2001-2017
</metadata>
<g transform="translate(0.000000,450.000000) scale(0.100000,-0.100000)"
fill="#000000" stroke="none">
<path d="M1290 4440 c-91 -10 -200 -21 -243 -25 l-79 -7 7 -61 c3 -34 8 -74
11 -88 4 -20 -24 -67 -143 -240 -82 -118 -161 -230 -176 -250 -15 -20 -27 -40
-27 -45 0 -9 136 -110 171 -128 12 -6 27 -2 48 13 17 12 35 20 40 17 4 -3 11
-29 14 -58 7 -76 41 -164 86 -229 l40 -57 -37 -6 c-130 -21 -334 -191 -458
-382 -84 -129 -197 -371 -258 -554 -77 -230 -76 -224 -26 -350 23 -58 91 -233
152 -390 60 -157 120 -310 133 -341 23 -54 23 -58 9 -113 -22 -86 -17 -110 26
-116 22 -3 36 -11 38 -22 2 -10 -8 -91 -22 -180 -14 -90 -33 -217 -42 -283 -9
-66 -17 -121 -18 -122 -1 -2 -83 -10 -182 -19 -195 -18 -235 -30 -266 -78 -22
-37 -19 -73 13 -152 22 -53 23 -53 73 -58 48 -5 335 -19 676 -31 85 -3 166 -8
180 -11 31 -6 46 21 79 137 38 136 52 262 50 455 -1 99 1 186 5 192 3 6 21 13
39 17 17 4 74 27 125 51 149 72 260 188 303 318 l16 51 23 -37 c25 -43 36 -45
118 -22 96 27 616 195 632 203 16 10 16 11 6 91 l-7 55 23 -22 c42 -38 172
-113 248 -142 124 -48 321 -82 504 -87 88 -2 160 -5 161 -7 1 -1 12 -31 24
-67 52 -147 157 -308 244 -374 l35 -27 340 225 c374 247 362 235 348 331 -8
49 -54 126 -89 150 -24 15 -32 13 -213 -60 -104 -41 -194 -75 -200 -75 -6 0
-95 91 -197 203 -101 111 -212 231 -246 267 -47 49 -67 78 -80 120 -16 53 -18
55 -59 61 -23 3 -43 7 -45 10 -2 2 -12 63 -21 134 -36 267 -72 403 -178 672
-52 134 -67 160 -122 225 -102 120 -251 229 -386 284 -169 68 -382 91 -564 60
-54 -9 -100 -15 -102 -13 -2 2 -8 53 -13 114 -10 109 -30 208 -53 258 -6 14
-9 27 -7 29 4 5 71 -8 111 -20 13 -4 29 20 72 112 31 65 55 118 54 120 -3 3
-394 144 -421 151 -28 8 -37 45 -37 149 l0 94 -47 -1 c-27 -1 -122 -9 -213
-19z m1190 -1608 c78 -74 155 -129 261 -187 87 -48 93 -52 110 -100 100 -278
130 -371 124 -392 -10 -43 -40 -63 -96 -63 -28 0 -59 -4 -69 -10 -15 -8 -27 0
-69 45 -76 84 -263 311 -293 358 -20 30 -45 111 -88 277 -33 129 -63 244 -66
255 -3 11 25 -14 63 -55 37 -41 92 -99 123 -128z m-1438 -626 l60 -159 -7
-214 -8 -213 -36 -48 c-20 -27 -65 -83 -100 -126 l-64 -77 -21 33 c-11 18 -21
35 -23 37 -1 2 -9 -2 -18 -9 -12 -10 -16 -10 -19 1 -2 8 -11 34 -20 59 -28 79
-116 374 -116 389 0 8 19 39 42 70 64 84 129 220 179 371 l44 135 24 -45 c13
-25 50 -117 83 -204z"/>
</g>
</svg>
